# xmcd CD database file
#
# Track frame offsets:
#	150
#	19488
#	31632
#	43666
#	57644
#	72561
#	85905
#	102982
#	122150
#	137594
#	152881
#	165323
#	184662
#	197391
#	211400
#	223321
#	237265
#	256334
#	270806
#	286917
#
# Disc length: 3989 seconds
#
# Revision: 0
# Processed by: cddbd v1.5.2PL0 Copyright (c) Steve Scherf et al.
# Submitted via: CDex 1.70beta2
#
DISCID=210f9314
DTITLE=Various Artist - NEW COUNTRY ROADS VOL. 6
DYEAR=2006
DGENRE=Country
TTITLE0=DEAN COLLINS - It's Always The Same Old Story
TTITLE1=SILVERWOOD - My Side Of Town
TTITLE2=W.S. HOLLAND and BOB WOOTTON - My Baby, She Walks All Over
TTITLE3=CHARLIE LOUVIN - Makin' Music (With Willie Nelson and Waylon Jennings)
TTITLE4=CREA - One Of Us
TTITLE5=J.C.P. feat. GORDON GRIFFIN - Heavy Metal (Don't Mean Rock'n' Roll To Me)
TTITLE6=COLLIN RAYE - Young As We're Ever Going To Be
TTITLE7=IRION - Two Faces
TTITLE8=MIKO MARKS - Freeway Bound
TTITLE9=KEVIN HENDERSON - Franklin
TTITLE10=JOE HODGKINS - Weymouth
TTITLE11=DEAN COLLINS - U-Turn
TTITLE12=SHANNAH - Bad News Is Good
TTITLE13=JACKSON MACKAY - The Yellow Groove
TTITLE14=PATCHWￖRK - Promises
TTITLE15=SILVERWOOD - Where Did All The Bluegrass Go
TTITLE16=IRION - I See You Crying
TTITLE17=MIKO MARKS - Find My Way Home
TTITLE18=SHANNAH - Don't Move
TTITLE19=J.C.P. feat. GORDON GRIFFIN - Folsom Prison Blues
EXTD=YEAR: 2006
EXTT0=
EXTT1=
EXTT2=
EXTT3=
EXTT4=
EXTT5=
EXTT6=
EXTT7=
EXTT8=
EXTT9=
EXTT10=
EXTT11=
EXTT12=
EXTT13=
EXTT14=
EXTT15=
EXTT16=
EXTT17=
EXTT18=
EXTT19=
PLAYORDER=
